<svg xmlns="http://www.w3.org/2000/svg" viewBox="0 0 242 279.4375"><polygon points="121 257.783 120.5 257.495 18.753 198.751 18.753 80.687 19.253 80.397 120.5 21.942 121.5 23.675 20.753 81.841 20.753 197.597 121 255.475 221.247 197.597 221.247 81.264 223.247 81.264 223.247 198.751 222.747 199.04 121 257.783"/><path d="M100.2,77.7188V192.1182h-7.68V77.7188Zm61.12,0-48.64,55.36q9.758,11.6814,22.48,26.08,12.7206,14.4009,16.48,17.76,3.7573,3.36,5.92,5.04a36.98,36.98,0,0,0,16.24,6.32l-.16,5.12q-9.6006-.1611-15.84-2.96a36.8832,36.8832,0,0,1-10.88-7.36q-4.6435-4.56-20.24-22.3994-15.6006-17.8389-23.44-27.28l49.12-55.68Z"/><path d="M121,279.4375,0,209.5781V69.8594L121,0,242,69.8594V209.5781ZM10,203.8047l111,64.0859,111-64.0859V75.6328L121,11.5469,10,75.6328Z"/></svg>