<svg xmlns="http://www.w3.org/2000/svg" xmlns:xlink="http://www.w3.org/1999/xlink" viewBox="0 0 1645.3523 1963.6586"><defs><style>.a{fill:none;}.b{clip-path:url(#a);}.c{fill:#00011a;opacity:0.5;isolation:isolate;}</style><clipPath id="a" transform="translate(80.2448 -86.4918)"><polygon class="a" points="1580 0 1580 1969.74 1578.83 1970 0 2320 0 0 1580 0"/></clipPath></defs><g class="b"><path class="c" d="M309.8921,660.32,97.0683,741.5267-80.2448,598.5282-44.7342,374.323,168.09,293.1162,345.4027,436.1146Z" transform="translate(80.2448 -86.4918)"/><path class="c" d="M1565.1074,1280.0509l-172.2145,149.1-215.5282-73.73-43.3136-222.8294,172.2145-149.0994,215.5282,73.73Z" transform="translate(80.2448 -86.4918)"/><path class="c" d="M368.1075,1901.0509l-172.2146,149.1-215.5282-73.73-43.3136-222.8294,172.2145-149.0994,215.5282,73.73Z" transform="translate(80.2448 -86.4918)"/><path class="c" d="M246.5691,1174.1286l-74.9749,65-93.8649-32.181-18.89-97.1811,74.9749-65,93.8649,32.181Z" transform="translate(80.2448 -86.4918)"/><path class="c" d="M1521.5691,1730.1286l-74.9748,65-93.865-32.181-18.89-97.1811,74.9749-65,93.865,32.181Z" transform="translate(80.2448 -86.4918)"/><path class="c" d="M1565.1074,383.0511,1392.8929,532.1505l-215.5282-73.73-43.3136-222.8294L1306.2656,86.4918l215.5282,73.73Z" transform="translate(80.2448 -86.4918)"/></g></svg>